# xmcd
#
# Track frame offsets:
#	150
#	11580
#	24995
#	34215
#	46280
#	63505
#	74420
#	90682
#	104415
#	117047
#	127545
#	145707
#
# Disc length: 2081 seconds
#
# Revision: 0
# Processed by: cddbd v1.5.2PL0 Copyright (c) Steve Scherf et al.
# Submitted via: dBpowerAMP V4.0
#
DISCID=97081f0c
DTITLE=Various Artist - #1 Super Country 70s Hits
DYEAR=2006
DGENRE=Country
TTITLE0=Waylon Jennings and Willie Nelson - Mamas, Don't Let Your Babies Grow Up To be Cowboys
TTITLE1=Dolly Parton - Here You Come Again
TTITLE2=Charlie Pride - Kiss An Angel Good Mornin'
TTITLE3=Charlie Rich - The Most Beautiful Girl In The World
TTITLE4=Ray Price - For The Good Times
TTITLE5=Tanya Tucker - Would You Lay With Me (In A Field Of Stone)
TTITLE6=Ronnie Milsap - It Was Almost Like A Song
TTITLE7=George Jones and Tammy Wynette - Golden Ring
TTITLE8=Lynn Anderson - Rose Garden
TTITLE9=Willie Nelson - Blue Eyes Crying In The Rain
TTITLE10=Johnny Cash - One Piece At A Time
TTITLE11=Jerry Reed - When You're Hot, You're Hot
EXTD=
EXTT0=
EXTT1=
EXTT2=
EXTT3=
EXTT4=
EXTT5=
EXTT6=
EXTT7=
EXTT8=
EXTT9=
EXTT10=
EXTT11=
PLAYORDER=
